<?xml version="1.0" standalone="no"?>
<!DOCTYPE svg PUBLIC "-//W3C//DTD SVG 20010904//EN"
 "http://www.w3.org/TR/2001/REC-SVG-20010904/DTD/svg10.dtd">
<svg version="1.0" xmlns="http://www.w3.org/2000/svg"
 width="2705.000000pt" height="2705.000000pt" viewBox="0 0 2705.000000 2705.000000"
 preserveAspectRatio="xMidYMid meet">
<metadata>
Created by potrace 1.14, written by Peter Selinger 2001-2017
</metadata>
<g transform="translate(0.000000,2705.000000) scale(0.100000,-0.100000)"
fill="#000000" stroke="none">
<path d="M13785 25242 c-155 -10 -406 -60 -565 -112 -263 -86 -536 -235 -740
-405 -219 -182 -350 -404 -428 -724 -8 -34 -11 -36 -162 -93 -175 -66 -424
-186 -580 -280 -103 -63 -332 -213 -379 -249 l-24 -19 34 -1 c102 -2 229 -13
294 -25 11 -2 32 -6 46 -9 128 -24 334 -104 499 -195 145 -79 543 -326 574
-354 39 -37 416 -266 545 -331 210 -106 431 -181 591 -200 25 -3 56 -7 70 -10
14 -3 72 -5 130 -5 250 -1 449 54 662 183 125 75 294 236 374 357 15 22 28 40
31 40 6 0 -5 -119 -17 -176 -16 -81 -17 -86 -40 -154 -92 -274 -305 -542 -630
-790 -18 -14 -44 -34 -59 -46 -50 -40 -237 -162 -386 -252 -211 -126 -472
-265 -885 -469 -749 -370 -1028 -510 -1225 -617 -236 -128 -588 -334 -593
-348 -2 -4 -8 -8 -13 -8 -15 0 -332 -216 -462 -314 -328 -248 -607 -515 -837
-803 -53 -65 -191 -270 -242 -358 -142 -243 -280 -573 -322 -770 -2 -5 -8 -28
-14 -50 -12 -43 -47 -217 -56 -275 -3 -19 -8 -57 -11 -85 -4 -27 -8 -60 -10
-72 -25 -155 -25 -668 0 -863 2 -19 7 -55 9 -80 8 -76 35 -249 51 -320 3 -14
8 -41 11 -60 3 -19 10 -49 15 -66 5 -17 11 -40 13 -50 25 -124 117 -408 183
-564 226 -533 555 -985 1008 -1386 50 -44 108 -93 130 -109 22 -17 49 -38 59
-47 72 -65 442 -311 591 -393 321 -177 624 -310 975 -429 136 -45 330 -104
400 -121 8 -2 71 -17 140 -34 69 -16 136 -32 150 -35 14 -2 70 -14 125 -25
119 -24 372 -65 475 -77 25 -3 55 -7 67 -9 12 -2 60 -7 105 -10 46 -4 94 -9
108 -11 66 -10 321 -19 570 -19 294 0 477 9 645 30 22 3 65 7 95 10 30 3 66 8
80 10 14 2 45 7 70 10 39 5 248 44 318 59 361 78 715 210 972 363 81 49 239
164 240 174 0 4 -20 10 -43 13 -82 12 -102 16 -142 26 -38 9 -109 24 -165 36
-43 8 -268 74 -340 100 -217 75 -493 205 -680 319 -481 292 -872 683 -1166
1165 -50 83 -204 380 -204 394 0 3 -11 29 -24 58 -26 58 -69 167 -72 183 -2 6
-12 37 -24 70 -44 122 -110 377 -135 520 -2 17 -7 39 -9 50 -3 18 -6 41 -22
150 -22 159 -29 292 -29 545 0 203 3 281 19 445 6 63 18 161 22 180 2 11 9 49
14 85 6 36 22 117 36 180 15 63 27 121 29 130 20 100 119 408 190 590 84 215
261 595 330 705 6 11 29 52 50 90 21 39 53 94 72 123 18 29 33 54 33 56 0 8
145 237 243 386 173 263 199 300 609 878 54 75 101 142 106 147 20 25 218 314
299 435 282 425 472 788 580 1104 34 101 88 297 97 351 2 17 9 59 14 95 16 99
22 184 23 300 1 102 -8 250 -16 280 -2 8 -7 35 -10 60 -40 304 -224 729 -434
1005 -115 152 -326 335 -526 456 -276 169 -665 305 -980 344 -27 3 -66 8 -85
11 -39 6 -373 11 -435 6z"/>
<path d="M18916 23133 c-438 -94 -1111 -465 -1701 -937 -55 -44 -116 -93 -136
-110 -19 -17 -49 -42 -65 -55 -209 -172 -594 -551 -779 -766 -33 -39 -67 -77
-75 -85 -76 -74 -367 -456 -523 -686 -459 -678 -768 -1358 -972 -2139 -19 -71
-32 -131 -30 -133 2 -2 11 14 21 35 92 195 353 620 481 783 157 201 193 244
303 365 189 207 459 442 623 541 99 59 113 67 177 99 262 131 509 139 686 22
246 -163 292 -518 113 -879 -21 -42 -56 -105 -78 -140 l-40 -63 107 -11 c97
-11 241 -45 267 -63 6 -4 26 -14 45 -21 125 -48 289 -198 357 -326 63 -119 87
-224 80 -354 -8 -171 -58 -291 -219 -523 -22 -32 -38 -64 -35 -71 3 -7 74 -38
158 -70 182 -68 317 -124 342 -141 16 -11 37 -8 130 16 137 37 371 90 448 103
19 3 43 7 54 10 11 2 56 9 100 16 44 7 87 13 95 15 23 4 146 20 230 29 51 6
173 17 240 22 51 4 589 17 635 16 17 -1 116 -4 220 -8 196 -7 276 0 380 32
137 43 235 119 267 207 51 141 -22 319 -207 501 -67 67 -184 156 -272 208 -32
19 -136 81 -231 139 -94 57 -180 109 -190 114 -9 6 -28 18 -42 26 -14 9 -119
74 -235 145 -255 155 -249 151 -274 195 -26 45 -27 104 -2 144 10 17 76 90
147 164 71 74 158 164 192 200 35 36 110 113 166 171 188 193 257 297 290 440
25 106 16 247 -23 345 -103 266 -370 464 -726 539 -38 8 -119 24 -180 36 -157
29 -157 29 -185 35 -14 2 -38 7 -55 10 -16 2 -43 8 -60 11 -16 4 -37 8 -45 9
-64 8 -147 31 -173 49 -60 40 -83 121 -53 189 8 18 49 68 91 112 43 44 156
163 254 264 252 262 267 278 324 356 199 267 272 540 191 711 -35 73 -130 141
-231 165 -90 22 -257 18 -377 -8z"/>
<path d="M16563 19765 c-276 -62 -764 -482 -1134 -975 -92 -123 -249 -356
-249 -369 0 -6 -4 -11 -10 -11 -5 0 -10 -5 -10 -11 0 -6 -20 -44 -45 -85 -99
-163 -257 -493 -331 -691 -74 -197 -147 -446 -186 -628 -27 -129 -26 -126 -33
-170 -3 -22 -10 -67 -15 -100 -10 -65 -18 -127 -25 -190 -25 -220 -25 -625 0
-830 2 -16 6 -55 10 -85 8 -71 45 -302 50 -309 1 -3 6 -22 9 -41 17 -113 106
-423 179 -629 l40 -114 18 24 c10 13 19 27 19 31 0 11 148 255 226 373 385
580 827 1000 1368 1298 76 43 140 77 141 77 2 0 46 20 99 45 53 25 99 45 102
45 3 0 20 6 37 14 101 45 347 125 497 161 87 21 159 38 175 40 11 2 49 9 85
16 36 6 75 13 88 14 200 26 318 64 376 122 33 33 42 82 22 120 -35 69 -200
186 -306 218 -14 4 -63 22 -110 40 -47 18 -157 61 -245 94 -266 103 -291 115
-328 167 -51 72 -41 160 28 250 14 18 25 35 25 37 0 3 35 58 78 123 104 158
137 211 163 258 94 173 38 350 -139 444 -107 57 -160 64 -448 66 -305 2 -317
5 -370 94 -40 66 -39 131 3 198 16 24 57 90 93 146 35 57 79 124 97 150 18 26
33 50 33 54 0 3 11 20 24 37 81 108 140 319 115 413 -14 52 -52 78 -113 79
-29 1 -76 -4 -103 -10z"/>
<path d="M23278 10525 c-2 -1 -52 -6 -113 -9 -127 -8 -149 -10 -320 -32 -94
-12 -288 -47 -390 -70 -60 -14 -120 -27 -132 -30 -126 -26 -474 -146 -668
-230 -117 -51 -450 -218 -475 -238 -8 -7 -37 -25 -65 -41 -238 -134 -569 -392
-816 -636 -164 -162 -213 -217 -339 -373 -422 -528 -715 -1139 -846 -1769 -14
-67 -28 -135 -30 -152 -2 -16 -6 -41 -9 -55 -5 -24 -31 -229 -40 -320 -29
-284 -18 -732 25 -1025 5 -33 12 -80 15 -105 5 -39 48 -251 61 -302 2 -10 6
-27 8 -38 77 -344 299 -874 500 -1190 96 -151 287 -423 316 -450 3 -3 39 -45
80 -95 129 -154 378 -398 535 -525 44 -36 82 -68 85 -71 35 -38 428 -300 546
-363 325 -174 549 -273 821 -362 181 -59 317 -95 523 -139 21 -4 211 -37 235
-40 11 -2 43 -6 70 -9 28 -3 59 -8 70 -10 24 -5 152 -16 295 -25 122 -8 547
-6 635 3 33 3 87 8 120 11 33 3 69 7 80 9 11 2 47 7 80 10 68 8 118 16 149 22
11 2 37 7 56 10 19 3 78 14 130 25 52 12 106 23 120 25 30 6 140 35 265 71
657 185 1313 552 1784 998 158 149 341 347 341 368 0 3 -255 260 -567 572
l-566 566 -45 -53 c-79 -92 -294 -300 -392 -379 -348 -278 -722 -463 -1140
-565 -58 -14 -121 -28 -140 -30 -19 -2 -57 -8 -85 -14 -200 -37 -610 -45 -835
-15 -272 36 -479 88 -690 172 -189 75 -445 210 -560 295 -215 159 -421 353
-540 508 -19 25 -37 47 -41 50 -11 8 -164 242 -194 295 -104 185 -230 484
-260 616 -2 9 -8 34 -14 55 -14 48 -47 211 -56 279 -4 28 -9 59 -11 70 -25
134 -24 651 1 770 2 11 6 38 9 60 52 402 229 843 479 1190 276 384 665 697
1092 879 22 10 54 24 70 31 79 37 340 117 425 131 14 2 36 7 50 10 140 33 353
51 585 48 127 -1 241 -4 255 -7 14 -3 52 -8 85 -11 67 -7 122 -15 212 -32 169
-31 439 -114 598 -183 95 -42 268 -131 350 -181 55 -33 109 -66 120 -73 11 -7
22 -14 25 -17 3 -3 39 -30 80 -60 41 -30 77 -57 80 -60 3 -3 32 -27 65 -55
112 -93 363 -353 417 -432 17 -26 -27 -67 598 547 200 195 418 409 485 475
l123 120 -27 31 c-14 17 -51 59 -81 94 -122 143 -396 400 -510 480 -19 13 -41
30 -48 37 -34 33 -411 283 -427 283 -2 0 -28 14 -57 32 -69 41 -365 188 -448
223 -36 15 -78 33 -95 40 -149 67 -571 203 -745 240 -187 40 -283 58 -370 70
-25 3 -56 8 -70 10 -73 11 -211 26 -290 32 -70 4 -598 12 -602 8z"/>
<path d="M9 10383 c0 -17 0 -8419 0 -8437 1 -11 286 -13 1784 -11 980 2 1798
5 1817 8 19 3 73 8 120 12 47 3 99 8 115 10 66 8 128 17 143 20 10 1 40 6 67
9 94 13 260 47 400 82 77 20 147 37 155 39 53 11 343 115 473 169 180 75 446
208 592 295 192 115 483 319 591 416 7 5 40 35 75 65 169 145 443 437 560 595
24 33 47 62 50 65 11 9 155 224 204 305 61 101 223 418 260 510 15 39 34 84
41 100 28 64 124 366 153 480 41 164 70 320 87 460 3 33 8 68 10 78 1 9 6 54
9 100 4 45 9 102 11 127 6 59 5 434 0 530 -9 147 -23 282 -43 405 -3 22 -7 49
-9 60 -1 11 -10 56 -19 100 -9 44 -18 91 -21 105 -14 72 -79 303 -115 407 -81
236 -208 517 -319 708 -29 50 -58 99 -64 110 -81 143 -266 398 -415 569 -140
162 -372 388 -514 501 -21 17 -48 38 -60 49 -38 32 -259 190 -332 237 -340
222 -840 452 -1180 545 -186 50 -289 75 -365 90 -47 9 -94 18 -105 20 -45 9
-82 15 -175 29 -25 4 -56 8 -70 10 -23 4 -69 9 -180 20 -153 15 -416 18 -1987
19 -1393 1 -1743 -1 -1744 -11z m3471 -1557 c107 -11 201 -23 240 -31 14 -3
41 -8 60 -11 188 -32 435 -116 658 -225 275 -134 483 -281 698 -494 220 -219
382 -445 510 -709 92 -193 187 -465 208 -601 4 -21 8 -40 10 -44 2 -3 7 -26
10 -51 3 -25 8 -58 11 -75 12 -70 15 -94 22 -165 14 -148 6 -553 -12 -645 -3
-11 -7 -37 -10 -57 -12 -87 -17 -116 -31 -178 -9 -36 -17 -74 -20 -84 -19 -94
-117 -361 -176 -481 -128 -260 -285 -481 -488 -684 -340 -343 -767 -588 -1227
-707 -125 -32 -149 -37 -225 -49 -18 -3 -44 -7 -58 -10 -28 -5 -83 -11 -185
-21 -70 -7 -1681 -13 -1701 -7 -13 5 -16 5325 -3 5333 12 8 1634 4 1709 -4z"/>
<path d="M8809 10390 c-1 -3 -2 -1905 -3 -4228 -1 -3746 1 -4223 14 -4226 21
-6 1571 -5 1592 0 15 4 16 223 15 3114 -1 1711 1 3110 4 3110 4 0 30 -46 59
-102 29 -57 81 -157 115 -223 68 -130 168 -325 290 -560 43 -82 106 -204 140
-270 34 -66 96 -185 138 -265 41 -80 105 -203 142 -275 102 -197 204 -394 290
-560 138 -268 289 -557 326 -625 7 -14 14 -27 14 -30 1 -6 46 -94 90 -175 18
-33 74 -141 125 -240 51 -99 123 -238 160 -310 37 -71 100 -193 140 -270 40
-77 101 -194 135 -260 34 -66 97 -187 140 -270 167 -324 240 -464 290 -560 29
-55 96 -185 150 -290 114 -222 165 -317 174 -327 3 -4 31 41 61 100 30 59 67
130 83 157 16 28 30 55 31 60 1 6 4 15 8 20 15 26 61 112 128 240 40 77 94
181 120 230 26 50 82 158 125 240 43 83 97 186 120 230 47 88 135 258 228 435
33 63 84 162 114 220 31 58 79 150 108 205 29 55 82 156 118 225 35 69 91 175
122 235 32 61 86 164 120 230 34 66 80 154 102 195 40 76 123 235 248 475 37
72 84 162 105 200 21 39 73 138 115 220 43 83 97 186 120 230 96 182 157 298
230 440 43 83 94 182 115 220 20 39 67 126 102 195 209 400 311 594 313 598 2
2 3 -1392 2 -3096 0 -1705 3 -3104 6 -3109 4 -6 315 -10 822 -10 736 0 815 2
815 16 1 27 1 8384 1 8416 l-1 30 -1115 0 c-727 0 -1117 -4 -1123 -10 -5 -6
-96 -181 -202 -390 -106 -209 -195 -384 -198 -390 -4 -5 -7 -12 -7 -15 -1 -5
-25 -52 -175 -345 -54 -104 -189 -370 -300 -590 -111 -220 -271 -535 -355
-700 -206 -404 -404 -794 -666 -1310 -372 -734 -406 -799 -415 -801 -5 -1
-119 218 -254 488 -135 269 -332 661 -438 871 -106 210 -349 690 -539 1067
-190 377 -430 852 -533 1055 -103 204 -267 528 -364 720 l-177 350 -1129 0
c-622 0 -1131 -2 -1131 -5z"/>
</g>
</svg>
